<?xml version="1.0" encoding="UTF-8"?>
<svg width="1200pt" height="1200pt" version="1.1" viewBox="0 0 1200 1200" xmlns="http://www.w3.org/2000/svg">
 <path d="m242.88 939.12 13.98-9.2773 53.773-35.734-18.707-8.9297-23.82-11.363 13.152-22.883 23.734-41.219c-106.29 55.465-228.05 125.35-252 138.98-41.711 23.711-52.117 46.246-52.117 101.1v122.48c0 14.352 11.734 26.051 26.051 26.051h273.41l-53.832-242.83z"/>
 <path d="m600 836.47c39.422-24.492 174-112.22 182.35-173.52v-105.05c32.496-23.762 52.117-60.324 52.117-115.8v-124.85c7.0938-4.3438 26.965-18.887 27.719-46.547 8.2422-103.75-11.605-119.94-33.758-159.66-22.164-39.73-42.781-41.258-42.781-41.258l68.762-25.98s-30.504-19.094-62.641-30.551c-32.16-11.461-88.621-12.996-149.75-10.691-61.102 2.2891-141.32 14.52-181.81 38.195-40.488 23.688-64.934 64.934-71.809 85.547-6.8633 20.629-0.046875 43.094-0.046875 43.094s-28.211-11.004-39.66 10.379c-11.473 21.395-16.801 84.023-9.168 119.17 7.6328 35.148 23.387 37.691 23.387 37.691l2.6875-0.070313v105.53c0 56.039 19.559 92.723 52.105 116.34v104.51c8.3164 61.293 142.87 149.03 182.29 173.52z"/>
 <path d="m409.12 702.25-17.855 3.3359-46.215 83.555-42.574 73.969 57.586 27.516-89.688 59.566 54.996 248.14h123.77l-53.543-433.74z"/>
 <path d="m1147.1 948.7c-24.215-13.766-144.71-84.887-252.19-140.55l23.879 42.781 13.152 22.883-23.82 11.363-18.707 8.9297 53.773 35.734 13.98 9.2773-3.625 16.379-53.832 242.83h273.41c14.316 0 26.051-11.699 26.051-26.051l0.003907-122.48c0.011719-54.84-10.395-77.391-52.07-101.09z"/>
 <path d="m643.33 875.04-24.312-21.852h-38.016l-24.324 21.852c7.5586 13.441 14.773 32.363 13.738 54.828-2.1016 45.551-57.098 78.863-55.586 267.71h170.34c1.5234-188.83-53.461-222.16-55.57-267.71-1.0469-22.465 6.168-41.387 13.727-54.828z"/>
 <path d="m839.95 890.63 57.613-27.516-43.477-75.648c-0.011719 0-0.011719-0.035156-0.046875-0.035156l-0.875-1.5703-0.25391-0.48047h0.023438l-44.184-79.789-17.844-3.3242 13.535 62.328-53.555 433.75h123.76l55.008-248.15zm-12.219 112.59v30.422c0 2.5195-2.0273 4.5586-4.5703 4.5586-2.5195 0-4.5586-2.0391-4.5586-4.5586v-64.355c0-2.5195 2.0391-4.5586 4.5586-4.5586 2.543 0 4.5703 2.0391 4.5703 4.5586v2.0508c16.129 8.0742 29.387-5.8203 50.328 2.543v31.871c-20.914-8.3867-34.211 5.5234-50.328-2.5312z"/>
</svg>
